<?xml version="1.0" encoding="UTF-8"?> <svg xmlns="http://www.w3.org/2000/svg" width="1366" height="392" viewBox="0 0 1366 392" fill="none"><path d="M495.273 422.744C472.408 422.342 476.96 397.033 461.078 388.199C449.966 380.167 433.24 389.237 422.297 382.458C412.087 376.342 408.798 363.114 414.953 352.913C421.11 342.716 434.382 339.403 444.592 345.519C455.729 351.952 455.555 370.944 467.87 376.94C477.267 382.811 489.65 376.06 489.782 364.979C491.221 351.35 475.021 341.457 475.459 328.603C475.687 316.713 485.537 307.23 497.458 307.428C509.38 307.626 518.866 317.425 518.638 329.315C518.598 342.16 502.019 351.546 502.945 365.195C502.132 375.637 510.763 384.136 515.576 393.176C521.854 406.765 510.288 423.421 495.263 422.75L495.273 422.744Z" fill="#014063"></path><path d="M368.112 436.644C358.827 427.77 363.486 409.307 352.943 400.578C346.434 393.726 335.764 392.667 326.215 391.161C304.194 385.695 314.488 361.702 301.192 349.49C292.302 339.059 273.916 343.962 264.894 334.792C256.429 326.438 256.367 312.782 264.758 304.293C273.149 295.804 286.826 295.696 295.291 304.05C304.58 312.928 299.917 331.387 310.46 340.117C318.197 348.036 331.822 344.373 334.571 333.609C339.199 320.669 325.809 307.237 329.278 294.816C332.316 283.289 344.125 276.363 355.655 279.355C367.188 282.344 374.072 294.114 371.038 305.645C367.956 318.145 349.637 323.397 347.299 336.907C345.369 344.245 344.9 349.939 349.562 357.589C358.322 373.219 349.276 379.453 362.211 391.204C371.101 401.635 389.487 396.732 398.509 405.901C406.974 414.256 407.036 427.912 398.645 436.401C390.254 444.89 376.577 444.998 368.108 436.648L368.112 436.644Z" fill="#014063"></path><path d="M444.138 26.3224C433.85 20.3899 430.326 7.237 436.276 -3.05641C439.251 -8.20312 442.854 -10.377 449.35 -13.0866C457.06 -16.3027 463.514 -20.3117 467.302 -26.854C471.089 -33.4044 471.33 -40.9886 470.263 -49.2662C469.365 -56.2397 469.448 -60.4432 472.423 -65.5899C478.371 -75.8782 491.535 -79.4143 501.828 -73.4788C512.115 -67.5463 515.639 -54.3938 509.689 -44.1004C506.714 -38.9537 503.111 -36.7795 496.616 -34.0699C488.905 -30.8538 482.452 -26.8451 478.663 -20.3027C474.877 -13.7524 474.635 -6.16788 475.702 2.1097C476.601 9.08321 476.517 13.2864 473.542 18.4331C467.595 28.7214 454.431 32.2578 444.138 26.3224Z" fill="#014063"></path><path d="M289.357 256.006C279.069 250.073 275.545 236.921 281.495 226.627C284.47 221.48 288.073 219.307 294.569 216.597C302.279 213.381 308.733 209.372 312.521 202.83C316.308 196.279 316.549 188.695 315.482 180.417C314.584 173.444 314.667 169.24 317.642 164.094C323.59 153.805 336.754 150.269 347.047 156.205C357.334 162.137 360.858 175.29 354.908 185.583C351.933 190.73 348.33 192.904 341.835 195.614C334.124 198.83 327.671 202.839 323.882 209.381C320.096 215.931 319.854 223.516 320.921 231.793C321.82 238.767 321.736 242.97 318.761 248.117C312.814 258.405 299.65 261.941 289.357 256.006Z" fill="#014063"></path><path d="M395.892 201.541C408.764 201.342 418.448 217.644 432.109 216.466C445.799 217.638 455.43 201.348 468.325 201.541C481.561 200.868 491.363 217.667 505.183 216.466C518.867 217.638 528.51 201.348 541.399 201.541C553.316 201.541 562.982 211.151 562.982 223.011C562.982 234.865 553.322 244.481 541.399 244.481C528.528 244.68 518.843 228.379 505.183 229.556C491.493 228.384 481.861 244.674 468.967 244.481C455.73 245.155 445.928 228.355 432.109 229.556C418.424 228.384 408.781 244.674 395.892 244.481C383.976 244.481 374.309 234.871 374.309 223.011C374.309 211.157 383.97 201.541 395.892 201.541Z" fill="#014063"></path><path d="M304.066 80.6342C311.054 68.668 326.985 69.3919 335.174 56.79C343.039 45.5419 333.677 29.0141 340.287 17.9602C346.25 7.64796 359.453 4.11054 369.775 10.0672C380.097 16.0238 383.637 29.2083 377.675 39.5264C371.412 50.7686 352.377 50.957 346.568 63.3705C341.319 73.1177 347.799 84.2128 359.158 84.8779C373.321 85.9256 381.64 70.0394 395.379 69.8863C409.283 69.8098 417.414 84.9133 431.942 84.931C450.229 85.496 459.19 61.4812 479.133 72.8647C492.36 80.0103 493.656 100.229 481.236 108.663C472.435 113.937 461.553 116.792 455.927 126.168C448.061 137.416 457.423 153.944 450.813 164.998C444.85 175.31 431.648 178.848 421.326 172.891C411.004 166.934 407.463 153.75 413.425 143.432C419.688 132.189 438.723 132.001 444.532 119.588C450.159 110.017 443.03 97.8683 431.942 98.0802C417.461 97.8153 409.46 112.919 395.721 113.072C381.817 113.148 373.575 97.574 359.158 98.0273C340.841 98.2333 331.91 121.477 311.967 110.094C301.645 104.137 298.104 90.9523 304.066 80.6342Z" fill="#014063"></path><path d="M261.072 21.7842C261.072 33.3253 270.439 42.6822 281.996 42.6822C293.552 42.6822 302.919 33.3253 302.919 21.7842C302.919 10.2431 293.552 0.886216 281.996 0.886216C270.439 0.886216 261.072 10.2431 261.072 21.7842Z" stroke="#014063" stroke-width="1.01486"></path><path d="M487.97 162.109C487.97 173.65 497.338 183.007 508.894 183.007C520.451 183.007 529.818 173.65 529.818 162.109C529.818 150.568 520.451 141.211 508.894 141.211C497.338 141.211 487.97 150.568 487.97 162.109Z" stroke="#014063" stroke-width="1.01486"></path><path d="M612.135 91.4368C612.135 102.978 621.503 112.335 633.059 112.335C644.616 112.335 653.983 102.978 653.983 91.4368C653.983 79.8957 644.616 70.5388 633.059 70.5388C621.503 70.5388 612.135 79.8957 612.135 91.4368Z" stroke="#014063" stroke-width="1.01486"></path><path d="M404.627 288.163C404.627 299.704 413.994 309.061 425.551 309.061C437.107 309.061 446.475 299.704 446.475 288.163C446.475 276.622 437.107 267.265 425.551 267.265C413.994 267.265 404.627 276.622 404.627 288.163Z" stroke="#014063" stroke-width="1.01486"></path><path d="M548.862 307.869C548.862 319.41 558.23 328.767 569.786 328.767C581.343 328.767 590.71 319.41 590.71 307.869C590.71 296.328 581.343 286.971 569.786 286.971C558.23 286.971 548.862 296.328 548.862 307.869Z" stroke="#014063" stroke-width="1.01486"></path><path d="M678.643 392.556C678.643 404.421 669.001 414.045 657.1 414.045C651.15 414.045 647.464 412.016 641.867 407.752C635.223 402.691 628.52 399.113 620.953 399.107C613.38 399.107 606.684 402.691 600.04 407.752C594.443 412.016 590.756 414.045 584.806 414.045C572.912 414.045 563.264 404.427 563.264 392.556C563.264 380.691 572.906 371.066 584.806 371.066C590.756 371.066 594.443 373.096 600.04 377.36C606.684 382.421 613.386 385.999 620.953 386.005C628.526 386.005 635.223 382.421 641.867 377.36C647.464 373.096 651.15 371.066 657.1 371.066C668.995 371.066 678.643 380.685 678.643 392.556Z" fill="#014063"></path><path d="M690.036 258.263C690.036 269.804 699.403 279.161 710.96 279.161C722.516 279.161 731.884 269.804 731.884 258.263C731.884 246.722 722.516 237.365 710.96 237.365C699.403 237.365 690.036 246.722 690.036 258.263Z" stroke="#014063" stroke-width="1.01486"></path><path d="M670.664 116.462C667.616 103.993 681.487 90.9318 677.299 77.9081C675.502 68.6352 667.077 62.0104 659.839 55.611C644.218 39.1717 665.817 24.4765 661.185 7.03799C659.308 -6.53159 641.168 -12.2762 638.501 -24.853C635.864 -36.4439 643.165 -47.9896 654.811 -50.638C666.457 -53.2864 678.045 -46.0297 680.681 -34.4389C683.731 -21.9645 669.859 -8.90839 674.046 4.11531C676.304 14.9475 689.762 19.1798 697.876 11.5824C708.746 3.16021 704.692 -15.3564 714.306 -23.9646C723.075 -32.0493 736.76 -31.5439 744.868 -22.8272C752.981 -14.1119 752.446 -0.49082 743.679 7.5996C734.349 16.482 716.077 11.0677 706.83 21.2014C701.252 26.3497 697.79 30.8985 697.6 39.8518C696.568 57.734 685.585 58.1302 690.16 74.9854C692.038 88.555 710.178 94.2993 712.845 106.876C715.482 118.467 708.181 130.013 696.535 132.661C684.889 135.31 673.301 128.053 670.659 116.463L670.664 116.462Z" fill="#014063"></path><path d="M542.882 100.445C545.312 92.512 546.2 83.801 543.013 76.4899C536.843 62.1705 520.951 61.3402 515.056 49.2295C510.337 38.2776 515.398 25.5745 526.359 20.8611C538.032 15.6188 550.822 26.671 565.6 20.3099C580.945 13.7047 581.132 -2.9338 592.963 -7.80869C603.926 -12.5276 616.638 -7.47493 621.352 3.47487C626.071 14.4269 621.009 27.1301 610.049 31.8435C598.376 37.0857 585.782 25.9532 570.807 32.3946C556.57 39.1037 549.024 57.1495 555.112 71.2776C561.76 86.7068 578.364 86.7862 583.245 98.6078C595.651 136.273 534.235 139.351 542.876 100.442L542.882 100.445Z" fill="#014063"></path><path d="M600.002 164.008C612.841 164.638 621.002 180.18 635.174 181.314C653.112 183.083 664.117 159.655 682.96 172.325C695.697 180.316 695.735 200.581 682.837 208.193C673.734 212.887 661.794 214.982 656.525 224.032C648.227 236.869 646.384 266.375 652.965 280.371C658.804 292.433 676.928 294.551 682.483 306.188C687.783 316.873 683.436 329.807 672.772 335.083C662.113 340.357 649.173 335.977 643.873 325.292C637.973 313.845 648.396 302.527 641.195 286.195C632.781 268.556 608.635 270.016 610.049 247.994C611.359 227.668 636.343 231.762 645.573 216.728C651.776 207.538 645.429 194.952 634.358 194.446C620.791 192.388 610.162 208.095 597.324 207.07C585.443 206.295 576.411 196.036 577.148 184.146C577.887 172.261 588.121 163.246 600.004 164.013L600.002 164.008Z" fill="#014063"></path><path d="M810.164 300.94C821.7 320.662 797.685 329.927 798.38 348.07C797.282 361.727 813.731 371.288 813.617 384.149C813.69 396.04 804.084 405.72 792.159 405.768C780.237 405.811 770.507 396.206 770.434 384.315C770.151 371.469 786.488 361.75 785.218 348.124C785.358 337.055 773.15 329.995 763.602 335.639C751.195 341.493 751.149 360.457 739.925 366.762C729.636 372.746 716.406 369.267 710.381 358.99C704.356 348.713 707.811 335.527 718.1 329.543C729.109 322.904 745.752 332.176 756.948 324.294C766.303 319.562 769.089 307.78 774.321 298.976C782.684 286.558 802.942 287.775 810.175 300.946L810.164 300.94Z" fill="#014063"></path><path d="M1217.22 316.51C1194.35 316.109 1198.9 290.8 1183.02 281.967C1171.91 273.935 1155.18 283.007 1144.24 276.228C1134.03 270.113 1130.74 256.885 1136.89 246.683C1143.05 236.486 1156.32 233.173 1166.53 239.288C1177.67 245.72 1177.5 264.712 1189.81 270.707C1199.21 276.577 1211.59 269.826 1211.72 258.745C1213.16 245.116 1196.96 235.224 1197.4 222.37C1197.63 210.48 1207.48 200.996 1219.4 201.193C1231.32 201.391 1240.8 211.19 1240.58 223.079C1240.54 235.924 1223.96 245.311 1224.89 258.961C1224.07 269.402 1232.71 277.901 1237.52 286.94C1243.8 300.529 1232.23 317.186 1217.21 316.516L1217.22 316.51Z" fill="#014063"></path><path d="M1076.48 335.95C1067.2 327.076 1071.86 308.613 1061.31 299.884C1054.81 293.032 1044.14 291.974 1034.59 290.468C1012.57 285.001 1022.86 261.009 1009.56 248.796C1000.67 238.365 982.288 243.268 973.266 234.099C964.801 225.744 964.738 212.088 973.13 203.599C981.521 195.11 995.198 195.002 1003.66 203.356C1012.95 212.234 1008.29 230.693 1018.83 239.423C1026.57 247.342 1040.19 243.679 1042.94 232.915C1047.57 219.975 1034.18 206.543 1037.65 194.122C1040.69 182.595 1052.5 175.669 1064.03 178.662C1075.56 181.65 1082.44 193.42 1079.41 204.951C1076.33 217.451 1058.01 222.703 1055.67 236.214C1053.74 243.551 1053.27 249.245 1057.93 256.895C1066.69 272.525 1057.65 278.759 1070.58 290.51C1079.47 300.941 1097.86 296.038 1106.88 305.208C1115.35 313.562 1115.41 327.218 1107.02 335.707C1098.63 344.197 1084.95 344.304 1076.48 335.954L1076.48 335.95Z" fill="#014063"></path><path d="M1054.32 57.6776C1064.61 63.6101 1068.13 76.763 1062.18 87.0564C1059.21 92.2031 1055.61 94.377 1049.11 97.0866C1041.4 100.303 1034.95 104.312 1031.16 110.854C1027.37 117.404 1027.13 124.989 1028.2 133.266C1029.1 140.24 1029.01 144.443 1026.04 149.59C1020.09 159.878 1006.93 163.414 996.632 157.479C986.345 151.546 982.821 138.394 988.771 128.1C991.746 122.954 995.349 120.78 1001.84 118.07C1009.55 114.854 1016.01 110.845 1019.8 104.303C1023.58 97.7524 1023.82 90.1679 1022.76 81.8903C1021.86 74.9168 1021.94 70.7136 1024.92 65.5669C1030.87 55.2786 1044.03 51.7422 1054.32 57.6776Z" fill="#014063"></path><path d="M1248.84 145.439C1235.97 145.639 1226.29 129.337 1212.63 130.515C1198.94 129.343 1189.31 145.633 1176.41 145.439C1163.18 146.113 1153.37 129.314 1139.55 130.515C1125.87 129.343 1116.23 145.633 1103.34 145.439C1091.42 145.439 1081.75 135.83 1081.75 123.97C1081.75 112.115 1091.41 102.5 1103.34 102.5C1116.21 102.301 1125.89 118.602 1139.55 117.424C1153.24 118.596 1162.87 102.306 1175.77 102.5C1189.01 101.826 1198.81 118.626 1212.63 117.424C1226.31 118.596 1235.95 102.306 1248.84 102.5C1260.76 102.5 1270.43 112.11 1270.43 123.97C1270.43 135.824 1260.77 145.439 1248.84 145.439Z" fill="#014063"></path><path d="M1194.39 3.3657C1187.41 15.3319 1171.48 14.6079 1163.29 27.2098C1155.42 38.458 1164.78 54.9858 1158.17 66.0397C1152.21 76.3519 1139.01 79.8893 1128.69 73.9327C1118.36 67.9761 1114.82 54.7916 1120.78 44.4735C1127.05 33.2312 1146.08 33.0429 1151.89 20.6293C1157.14 10.8822 1150.66 -0.212948 1139.3 -0.878063C1125.14 -1.92577 1116.82 13.9605 1103.08 14.1135C1089.18 14.19 1081.05 -0.913426 1066.52 -0.931082C1048.23 -1.49614 1039.27 22.5187 1019.33 11.1352C1006.1 3.98961 1004.8 -16.2286 1017.22 -24.6633C1026.03 -29.9371 1036.91 -32.7919 1042.53 -42.1683C1050.4 -53.4164 1041.04 -69.9443 1047.65 -80.9981C1053.61 -91.3104 1066.81 -94.8478 1077.13 -88.8912C1087.46 -82.9346 1091 -69.75 1085.03 -59.4318C1078.77 -48.1896 1059.74 -48.0012 1053.93 -35.5877C1048.3 -26.0171 1055.43 -13.8684 1066.52 -14.0803C1081 -13.8154 1089 -28.919 1102.74 -29.072C1116.64 -29.1485 1124.89 -13.5742 1139.3 -14.0274C1157.62 -14.2334 1166.55 -37.4772 1186.49 -26.0937C1196.81 -20.1371 1200.36 -6.95243 1194.39 3.3657Z" fill="#014063"></path><path d="M1237.39 62.2158C1237.39 50.6747 1228.02 41.3178 1216.46 41.3178C1204.91 41.3178 1195.54 50.6747 1195.54 62.2158C1195.54 73.7569 1204.91 83.1138 1216.46 83.1138C1228.02 83.1138 1237.39 73.7569 1237.39 62.2158Z" stroke="#014063" stroke-width="1.01486"></path><path d="M977.492 295.977C977.492 284.435 968.125 275.079 956.568 275.079C945.012 275.079 935.645 284.435 935.645 295.977C935.645 307.518 945.012 316.875 956.568 316.875C968.125 316.875 977.492 307.518 977.492 295.977Z" stroke="#014063" stroke-width="1.01486"></path><path d="M1110.84 406.401C1110.84 394.86 1101.47 385.503 1089.92 385.503C1078.36 385.503 1068.99 394.86 1068.99 406.401C1068.99 417.942 1078.36 427.299 1089.92 427.299C1101.47 427.299 1110.84 417.942 1110.84 406.401Z" stroke="#014063" stroke-width="1.01486"></path><path d="M796.177 179.436C796.177 167.895 786.81 158.538 775.254 158.538C763.697 158.538 754.33 167.895 754.33 179.436C754.33 190.977 763.697 200.334 775.254 200.334C786.81 200.334 796.177 190.977 796.177 179.436Z" stroke="#014063" stroke-width="1.01486"></path><path d="M886.324 -7.43678C886.324 -18.9778 876.957 -28.3348 865.401 -28.3348C853.844 -28.3348 844.477 -18.9778 844.477 -7.43678C844.477 4.10428 853.844 13.4612 865.401 13.4612C876.957 13.4612 886.324 4.10427 886.324 -7.43678Z" stroke="#014063" stroke-width="1.01486"></path><path d="M1287.56 285.699C1287.56 273.834 1297.2 264.21 1309.1 264.21C1315.05 264.21 1318.74 266.239 1324.34 270.503C1330.98 275.565 1337.68 279.142 1345.25 279.148C1352.82 279.148 1359.52 275.565 1366.16 270.503C1371.76 266.239 1375.45 264.21 1381.4 264.21C1393.29 264.21 1402.94 273.829 1402.94 285.699C1402.94 297.564 1393.3 307.189 1381.4 307.189C1375.45 307.189 1371.76 305.16 1366.16 300.896C1359.52 295.834 1352.82 292.257 1345.25 292.251C1337.68 292.251 1330.98 295.834 1324.34 300.896C1318.74 305.16 1315.05 307.189 1309.1 307.189C1297.21 307.189 1287.56 297.57 1287.56 285.699Z" fill="#014063"></path><path d="M1111.86 194.046C1111.86 205.587 1121.22 214.944 1132.78 214.944C1144.34 214.944 1153.7 205.587 1153.7 194.046C1153.7 182.505 1144.34 173.148 1132.78 173.148C1121.22 173.148 1111.86 182.505 1111.86 194.046Z" stroke="#014063" stroke-width="1.01486"></path><path d="M854.826 172.608C877.686 171.996 874.264 197.482 890.522 205.603C901.981 213.136 918.287 203.332 929.521 209.62C939.992 215.277 943.866 228.346 938.171 238.811C932.472 249.27 919.36 253.168 908.889 247.511C897.477 241.578 896.807 222.597 884.237 217.153C874.589 211.704 862.519 218.997 862.878 230.073C862.047 243.753 878.67 252.917 878.803 265.779C879.104 277.667 869.686 287.577 857.767 287.908C845.848 288.238 835.936 278.869 835.635 266.981C835.105 254.147 851.25 244.035 849.719 230.44C850.067 219.973 841.067 211.865 835.857 203.047C828.981 189.75 839.797 172.598 854.836 172.602L854.826 172.608Z" fill="#014063"></path><path d="M1390.05 0.0248701C1387 -12.444 1400.88 -25.5048 1396.69 -38.5287C1394.89 -47.8017 1386.47 -54.427 1379.23 -60.8267C1363.61 -77.2668 1385.21 -91.961 1380.58 -109.4C1378.7 -122.969 1360.56 -128.715 1357.9 -141.292C1355.26 -152.883 1362.56 -164.428 1374.21 -167.076C1385.85 -169.724 1397.44 -162.467 1400.08 -150.876C1403.13 -138.401 1389.25 -125.346 1393.44 -112.322C1395.7 -101.489 1409.15 -97.2565 1417.27 -104.853C1428.14 -113.275 1424.09 -131.792 1433.7 -140.4C1442.47 -148.484 1456.16 -147.978 1464.26 -139.261C1472.38 -130.545 1471.84 -116.924 1463.07 -108.834C1453.74 -99.952 1435.47 -105.367 1426.22 -95.2341C1420.64 -90.086 1417.18 -85.5374 1416.99 -76.5841C1415.96 -58.7019 1404.98 -58.3062 1409.55 -41.4508C1411.43 -27.8811 1429.57 -22.136 1432.23 -9.55898C1434.87 2.03197 1427.57 13.5774 1415.92 16.2253C1404.28 18.8731 1392.69 11.6158 1390.05 0.0261434L1390.05 0.0248701Z" fill="#014063"></path><path d="M827.795 -32.462C830.844 -19.9933 816.973 -6.93182 821.161 6.09189C822.958 15.3648 831.383 21.9896 838.621 28.389C854.242 44.8283 832.643 59.5235 837.274 76.962C839.152 90.5316 857.292 96.2762 859.959 108.853C862.596 120.444 855.295 131.99 843.649 134.638C832.003 137.286 820.415 130.03 817.779 118.439C814.729 105.965 828.601 92.9084 824.414 79.8847C822.156 69.0525 808.698 64.8202 800.584 72.4176C789.714 80.8398 793.767 99.3564 784.154 107.965C775.385 116.049 761.7 115.544 753.592 106.827C745.479 98.1119 746.014 84.4908 754.781 76.4004C764.111 67.518 782.383 72.9323 791.63 62.7986C797.208 57.6503 800.67 53.1015 800.86 44.1482C801.892 26.266 812.875 25.8698 808.3 9.01457C806.422 -4.55501 788.282 -10.2993 785.615 -22.8761C782.978 -34.467 790.279 -46.0128 801.925 -48.6612C813.571 -51.3096 825.159 -44.0528 827.801 -32.4633L827.795 -32.462Z" fill="#014063"></path><path d="M1249.64 0.693768C1252.07 -7.23903 1252.96 -15.9501 1249.77 -23.2609C1243.6 -37.5798 1227.71 -38.4087 1221.81 -50.5189C1217.09 -61.4705 1222.15 -74.174 1233.11 -78.8883C1244.78 -84.1316 1257.57 -73.0805 1272.35 -79.4429C1287.7 -86.0493 1287.88 -102.688 1299.71 -107.564C1310.67 -112.284 1323.39 -107.232 1328.1 -96.2826C1332.82 -85.331 1327.76 -72.6274 1316.8 -67.913C1305.13 -62.6698 1292.53 -73.8013 1277.56 -67.3586C1263.32 -60.6483 1255.78 -42.6018 1261.87 -28.4742C1268.52 -13.0456 1285.12 -12.9676 1290 -1.14646C1302.41 36.5178 1241 39.6011 1249.63 0.691642L1249.64 0.693768Z" fill="#014063"></path><path d="M955.578 -16.4446C953.147 -8.51199 952.26 0.198968 955.447 7.51006C961.617 21.8295 977.509 22.6598 983.404 34.7705C988.123 45.7224 983.062 58.4255 972.101 63.1389C960.428 68.3812 947.638 57.329 932.86 63.6901C917.515 70.2953 917.328 86.9338 905.497 91.8087C894.534 96.5276 881.822 91.4749 877.108 80.5251C872.389 69.5731 877.451 56.8699 888.411 52.1565C900.084 46.9143 912.678 58.0468 927.653 51.6054C941.89 44.8963 949.436 26.8505 943.348 12.7224C936.7 -2.70682 920.096 -2.78617 915.215 -14.6078C902.809 -52.2731 964.225 -55.3512 955.583 -16.4425L955.578 -16.4446Z" fill="#014063"></path><path d="M906.729 136.625C906.729 148.166 916.097 157.523 927.653 157.523C939.21 157.523 948.577 148.166 948.577 136.625C948.577 125.084 939.21 115.727 927.653 115.727C916.097 115.727 906.729 125.084 906.729 136.625Z" stroke="#014063" stroke-width="1.01486"></path><path d="M1319.71 -7.43675C1319.71 4.1043 1329.07 13.4612 1340.63 13.4612C1352.19 13.4612 1361.55 4.10429 1361.55 -7.43676C1361.55 -18.9778 1352.19 -28.3347 1340.63 -28.3347C1329.07 -28.3347 1319.71 -18.9778 1319.71 -7.43675Z" stroke="#014063" stroke-width="1.01486"></path><path d="M1273.44 208.996C1273.44 220.537 1282.81 229.894 1294.37 229.894C1305.92 229.894 1315.29 220.537 1315.29 208.996C1315.29 197.455 1305.92 188.098 1294.37 188.098C1282.81 188.098 1273.44 197.455 1273.44 208.996Z" stroke="#014063" stroke-width="1.01486"></path><path d="M1308.67 56.2253C1321.51 56.856 1329.67 72.3982 1343.84 73.5332C1361.78 75.3033 1372.78 51.8763 1391.62 64.5468C1404.36 72.5392 1404.4 92.804 1391.5 100.415C1382.4 105.109 1370.46 107.203 1365.19 116.253C1356.89 129.089 1355.04 158.595 1361.62 172.592C1367.46 184.654 1385.59 186.773 1391.14 198.41C1396.44 209.096 1392.09 222.029 1381.43 227.305C1370.77 232.578 1357.83 228.197 1352.53 217.512C1346.63 206.065 1357.05 194.747 1349.85 178.415C1341.44 160.775 1317.29 162.234 1318.71 140.212C1320.02 119.886 1345 123.982 1354.24 108.948C1360.44 99.7584 1354.09 87.1717 1343.02 86.6658C1329.45 84.607 1318.82 100.313 1305.99 99.2874C1294.11 98.5115 1285.07 88.252 1285.81 76.3618C1286.55 64.4769 1296.79 55.4625 1308.67 56.2305L1308.67 56.2253Z" fill="#014063"></path><path d="M1028.39 364.537C1022.13 375.749 1004.56 376.154 997.254 388.334C987.704 403.603 1003.84 423.853 984.106 435.093C971.282 442.945 953.085 433.983 951.982 419.06C951.811 408.83 955.232 397.214 949.451 388.481C941.618 375.355 915.965 360.608 900.487 360.285C887.073 360.156 877.128 375.437 864.222 375.244C852.283 375.244 842.609 365.612 842.609 353.725C842.609 341.845 852.283 332.208 864.222 332.208C877.11 332.008 882.637 346.361 900.486 347.166C920.046 347.465 929.455 325.207 948.584 336.248C966.239 346.443 951.474 366.986 960.865 381.921C966.357 391.552 980.466 391.458 985.834 381.774C993.703 370.545 984.33 354.06 990.948 343.025C996.918 332.736 1010.13 329.207 1020.47 335.144C1030.81 341.081 1034.35 354.242 1028.39 364.537L1028.39 364.537Z" fill="#014063"></path><path d="M1175.97 345.523C1188.82 345.24 1198.59 361.586 1212.23 360.312C1221.68 360.56 1229.98 353.773 1237.8 348.094C1257.24 336.407 1266.94 360.643 1284.99 359.888C1298.66 360.985 1308.19 344.533 1321.06 344.645C1332.96 344.574 1342.68 354.186 1342.75 366.115C1342.83 378.044 1333.23 387.78 1321.33 387.851C1308.48 388.134 1298.71 371.788 1285.07 373.061C1274 372.926 1266.96 385.138 1272.63 394.691C1278.52 407.109 1297.5 407.151 1303.84 418.384C1309.85 428.68 1306.4 441.918 1296.13 447.945C1285.86 453.977 1272.66 450.516 1266.64 440.22C1259.97 429.205 1269.21 412.552 1261.3 401.348C1257.47 394.797 1253.77 390.439 1245.06 388.322C1227.8 383.457 1229.78 372.66 1212.31 373.486C1198.64 372.389 1189.11 388.841 1176.24 388.729C1164.34 388.8 1154.63 379.188 1154.55 367.259C1154.48 355.33 1164.07 345.594 1175.97 345.517L1175.97 345.523Z" fill="#014063"></path></svg> 