<?xml version="1.0" encoding="UTF-8"?> <svg xmlns="http://www.w3.org/2000/svg" width="359" height="496" viewBox="0 0 359 496" fill="none"><g opacity="0.6"><path d="M66.7516 18.3141C66.7516 28.1525 58.776 36.1282 48.9375 36.1282C39.0991 36.1282 31.1234 28.1525 31.1234 18.3141C31.1234 8.47564 39.0991 0.5 48.9375 0.5C58.776 0.5 66.7516 8.47564 66.7516 18.3141Z" stroke="#F2EAD4"></path><path d="M97.9677 71.5409C97.9677 61.4394 89.7783 53.2501 79.6768 53.2501C74.6255 53.2501 71.4937 54.9791 66.7434 58.6076C61.1028 62.9159 55.4127 65.9635 48.9849 65.9635C42.5571 65.9635 36.866 62.9158 31.2244 58.6065C26.473 54.978 23.3412 53.249 18.291 53.249C8.18942 53.249 0 61.4384 0 71.5399C0 81.6415 8.18942 89.8308 18.291 89.8308C23.3422 89.8308 26.474 88.1019 31.2244 84.4734C36.865 80.165 42.555 77.1174 48.9828 77.1174C55.4106 77.1174 61.1017 80.165 66.7434 84.4744C71.4947 88.1029 74.6265 89.832 79.6768 89.832C89.7783 89.832 97.9677 81.6425 97.9677 71.5409Z" fill="#F2EAD4"></path><path d="M48.985 65.9635C42.5573 65.9635 36.8662 62.9158 31.2245 58.6064C31.2245 58.6064 42.5552 77.1174 48.9829 77.1174C55.4107 77.1174 61.1018 80.165 66.7435 84.4744C66.7435 84.4744 55.4128 65.9635 48.985 65.9635Z" fill="#F2EAD4"></path><path d="M132.224 87.4663C130.304 86.3571 128.662 84.9533 127.32 83.3442C126.622 82.5192 125.988 81.6215 125.429 80.6533C124.191 78.5087 123.545 76.5555 123.297 74.4245C122.98 72.384 123.005 70.2846 123.399 68.2156C123.443 67.9799 123.483 67.7442 123.511 67.5063C123.54 67.2685 123.571 67.0222 123.603 66.7749C124.514 59.7357 124.31 53.2838 121.097 47.7169C117.885 42.1499 112.4 38.7445 105.849 36.0115C100.331 33.71 97.2689 31.8621 94.7433 27.4874C89.6941 18.7382 92.6933 7.55272 101.441 2.50248C110.191 -2.54671 121.377 0.452512 126.427 9.20177C128.951 13.5764 129.019 17.1533 128.251 23.0812C127.34 30.1204 127.544 36.5724 130.757 42.1394C130.844 42.2909 130.934 42.4413 131.024 42.5897C135.795 50.3834 147.193 50.2656 151.819 42.3856C151.843 42.3446 151.867 42.3035 151.891 42.2614C155.106 36.6955 155.314 30.2425 154.403 23.2033C153.637 17.2744 153.707 13.6974 156.233 9.32387C161.286 0.57671 172.472 -2.41935 181.22 2.633C189.968 7.68535 192.964 18.8718 187.911 27.62C185.386 31.9936 182.322 33.8416 176.804 36.141C170.252 38.8708 164.767 42.274 161.552 47.8388C158.337 53.4047 158.13 59.8578 159.04 66.897C159.04 66.9012 159.041 66.9054 159.042 66.9107C159.081 67.2127 159.126 67.5136 159.187 67.8115C159.601 69.8141 159.668 71.8505 159.412 73.8373C159.231 76.2525 158.585 78.3971 157.211 80.7775C152.159 89.5246 140.972 92.5207 132.224 87.4684L132.224 87.4663Z" fill="#F2EAD4"></path><path d="M151.886 42.3584C155.101 36.7925 155.308 30.3394 154.398 23.3002C154.398 23.3002 164.761 42.3699 161.546 47.9358C158.331 53.5017 158.123 59.9547 159.034 66.9939C159.034 66.9939 148.671 47.9232 151.886 42.3584Z" fill="#F2EAD4"></path><path d="M123.512 67.5042C123.541 67.2642 123.572 67.0202 123.603 66.7729C124.514 59.7337 124.31 53.2816 121.097 47.7147C117.885 42.1477 128.252 23.0802 128.252 23.0802C127.341 30.1194 127.545 36.5713 130.758 42.1383C130.845 42.2898 130.935 42.4403 131.025 42.5887C135.796 50.3824 123.482 67.742 123.512 67.5042Z" fill="#F2EAD4"></path><path d="M154.011 18.2921C154.011 8.19056 162.2 0.00119767 172.302 0.00119855C177.353 0.001199 180.485 1.73013 185.235 5.35864C190.876 9.66698 196.566 12.7146 202.994 12.7146C209.421 12.7146 215.112 9.667 220.754 5.35762C225.506 1.72911 228.637 7.30222e-05 233.688 7.34637e-05C243.789 7.43468e-05 251.979 8.18954 251.979 18.2911C251.979 28.3926 243.789 36.582 233.688 36.582C228.636 36.582 225.504 34.8529 220.754 31.2244C215.114 26.9161 209.423 23.8685 202.996 23.8685C196.568 23.8685 190.877 26.9162 185.235 31.2256C180.484 34.8541 177.352 36.583 172.302 36.583C162.2 36.583 154.011 28.3936 154.011 18.2921Z" fill="#F2EAD4"></path><path d="M202.994 12.7156C209.421 12.7156 215.112 9.66801 220.754 5.35862C220.754 5.35862 209.423 23.8695 202.996 23.8695C196.568 23.8695 190.877 26.9172 185.235 31.2266C185.235 31.2266 196.566 12.7156 202.994 12.7156Z" fill="#F2EAD4"></path><path d="M365.9 2.45703C367.819 3.56621 369.462 4.97004 370.804 6.57909C371.502 7.40413 372.136 8.30182 372.695 9.26999C373.933 11.4147 374.579 13.3678 374.827 15.4988C375.144 17.5393 375.119 19.6388 374.725 21.7077C374.681 21.9434 374.641 22.1792 374.612 22.417C374.584 22.6548 374.552 22.9011 374.521 23.1484C373.61 30.1876 373.814 36.6395 377.027 42.2065C380.239 47.7734 385.724 51.1789 392.275 53.9118C397.793 56.2133 400.855 58.0613 403.381 62.4359C408.43 71.1852 405.431 82.3706 396.682 87.4209C387.933 92.47 376.747 89.4708 371.697 80.7216C369.173 76.3469 369.104 72.77 369.873 66.8421C370.784 59.8029 370.58 53.3509 367.367 47.7839C367.28 47.6324 367.19 47.482 367.1 47.3336C362.329 39.5399 350.931 39.6577 346.305 47.5377C346.281 47.5788 346.257 47.6199 346.233 47.662C343.018 53.2279 342.81 59.6808 343.721 66.72C344.487 72.649 344.417 76.2259 341.891 80.5995C336.838 89.3466 325.652 92.3427 316.904 87.2903C308.156 82.238 305.16 71.0515 310.213 62.3033C312.738 57.9298 315.802 56.0817 321.32 53.7824C327.872 51.0526 333.357 47.6493 336.572 42.0845C339.787 36.5186 339.994 30.0655 339.084 23.0263C339.084 23.0221 339.083 23.0179 339.082 23.0126C339.043 22.7106 338.998 22.4097 338.937 22.1119C338.523 20.1093 338.456 18.0729 338.711 16.086C338.892 13.6709 339.539 11.5263 340.913 9.14584C345.965 0.398687 357.152 -2.59737 365.9 2.45498V2.45703Z" fill="#F2EAD4"></path><path d="M346.238 47.565C343.023 53.1309 342.815 59.584 343.726 66.6232C343.726 66.6232 333.363 47.5534 336.578 41.9875C339.793 36.4216 340 29.9686 339.09 22.9294C339.09 22.9294 349.453 42.0001 346.238 47.565Z" fill="#F2EAD4"></path><path d="M344.113 71.6312C344.113 81.7328 335.924 89.9221 325.822 89.9221C320.771 89.9221 317.639 88.1932 312.889 84.5647C307.248 80.2564 301.558 77.2087 295.13 77.2087C288.703 77.2087 283.011 80.2563 277.37 84.5657C272.618 88.1942 269.487 89.9233 264.436 89.9233C254.335 89.9233 246.145 81.7338 246.145 71.6323C246.145 61.5307 254.335 53.3414 264.436 53.3414C269.488 53.3414 272.619 55.0704 277.37 58.6989C283.01 63.0072 288.7 66.0548 295.128 66.0548C301.556 66.0548 307.247 63.0072 312.889 58.6978C317.64 55.0693 320.772 53.3403 325.822 53.3403C335.924 53.3403 344.113 61.5297 344.113 71.6312Z" fill="#F2EAD4"></path><path d="M295.13 77.2077C288.703 77.2077 283.011 80.2553 277.37 84.5647C277.37 84.5647 288.7 66.0538 295.128 66.0538C301.556 66.0538 307.247 63.0062 312.889 58.6968C312.889 58.6968 301.558 77.2077 295.13 77.2077Z" fill="#F2EAD4"></path><path d="M282.484 173.063C282.484 182.902 274.508 190.877 264.67 190.877C254.831 190.877 246.856 182.902 246.856 173.063C246.856 163.225 254.831 155.249 264.67 155.249C274.508 155.249 282.484 163.225 282.484 173.063Z" stroke="#F2EAD4"></path><path d="M374.67 119.814C374.67 129.653 366.695 137.628 356.856 137.628C347.018 137.628 339.042 129.653 339.042 119.814C339.042 109.976 347.018 102 356.856 102C366.695 102 374.67 109.976 374.67 119.814Z" stroke="#F2EAD4"></path><path d="M127.893 119.814C127.893 129.653 119.918 137.628 110.079 137.628C100.241 137.628 92.2651 129.653 92.2651 119.814C92.2651 109.976 100.241 102 110.079 102C119.918 102 127.893 109.976 127.893 119.814Z" stroke="#F2EAD4"></path><path d="M159.109 173.041C159.109 162.939 150.92 154.75 140.818 154.75C135.767 154.75 132.635 156.479 127.885 160.108C122.244 164.416 116.554 167.463 110.127 167.463C103.699 167.463 98.0077 164.416 92.3661 160.106C87.6147 156.478 84.4829 154.749 79.4327 154.749C69.3311 154.749 61.1417 162.938 61.1417 173.04C61.1417 183.141 69.3311 191.331 79.4327 191.331C84.484 191.331 87.6158 189.602 92.3661 185.973C98.0067 181.665 103.697 178.617 110.125 178.617C116.552 178.617 122.243 181.665 127.885 185.974C132.636 189.603 135.768 191.332 140.818 191.332C150.92 191.332 159.109 183.142 159.109 173.041Z" fill="#F2EAD4"></path><path d="M110.127 167.463C103.699 167.463 98.0079 164.416 92.3662 160.106C92.3662 160.106 103.697 178.617 110.125 178.617C116.552 178.617 122.244 181.665 127.885 185.974C127.885 185.974 116.555 167.463 110.127 167.463Z" fill="#F2EAD4"></path><path d="M193.366 188.966C191.446 187.857 189.803 186.453 188.462 184.844C187.764 184.019 187.129 183.122 186.571 182.153C185.333 180.009 184.687 178.056 184.439 175.925C184.122 173.884 184.147 171.785 184.541 169.716C184.585 169.48 184.625 169.244 184.653 169.006C184.682 168.769 184.713 168.522 184.745 168.275C185.656 161.236 185.452 154.784 182.239 149.217C179.026 143.65 173.541 140.244 166.991 137.511C161.473 135.21 158.411 133.362 155.885 128.987C150.836 120.238 153.835 109.053 162.583 104.002C171.332 98.9533 182.519 101.953 187.568 110.702C190.093 115.076 190.161 118.653 189.393 124.581C188.482 131.62 188.686 138.072 191.899 143.639C191.986 143.791 192.075 143.941 192.166 144.09C196.936 151.883 208.334 151.766 212.96 143.886C212.985 143.845 213.009 143.803 213.033 143.761C216.248 138.195 216.455 131.742 215.545 124.703C214.779 118.774 214.848 115.197 217.375 110.824C222.427 102.077 233.614 99.0807 242.362 104.133C251.109 109.185 254.105 120.372 249.053 129.12C246.527 133.494 243.464 135.342 237.945 137.641C231.393 140.371 225.909 143.774 222.694 149.339C219.479 154.905 219.271 161.358 220.182 168.397C220.182 168.401 220.183 168.405 220.184 168.411C220.223 168.713 220.268 169.014 220.329 169.311C220.743 171.314 220.81 173.35 220.554 175.337C220.373 177.752 219.727 179.897 218.353 182.277C213.3 191.025 202.114 194.021 193.366 188.968L193.366 188.966Z" fill="#F2EAD4"></path><path d="M213.028 143.858C216.243 138.292 216.45 131.839 215.54 124.8C215.54 124.8 225.902 143.87 222.687 149.436C219.472 155.002 219.265 161.455 220.175 168.494C220.175 168.494 209.813 149.423 213.028 143.858Z" fill="#F2EAD4"></path><path d="M184.653 169.004C184.683 168.764 184.713 168.52 184.745 168.273C185.656 161.234 185.452 154.782 182.239 149.215C179.026 143.648 189.394 124.58 189.394 124.58C188.483 131.619 188.687 138.071 191.9 143.638C191.987 143.79 192.077 143.94 192.167 144.089C196.937 151.882 184.624 169.242 184.653 169.004Z" fill="#F2EAD4"></path><path d="M215.152 119.792C215.152 109.691 223.342 101.501 233.443 101.501C238.495 101.501 241.627 103.23 246.377 106.859C252.017 111.167 257.708 114.215 264.135 114.215C270.563 114.215 276.254 111.167 281.896 106.858C286.647 103.229 289.779 101.5 294.829 101.5C304.931 101.5 313.12 109.69 313.12 119.791C313.12 129.893 304.931 138.082 294.829 138.082C289.778 138.082 286.646 136.353 281.896 132.724C276.255 128.416 270.565 125.369 264.137 125.369C257.71 125.369 252.019 128.416 246.377 132.726C241.625 136.354 238.494 138.083 233.443 138.083C223.342 138.083 215.152 129.894 215.152 119.792Z" fill="#F2EAD4"></path><path d="M264.135 114.216C270.563 114.216 276.254 111.168 281.896 106.859C281.896 106.859 270.565 125.37 264.137 125.37C257.71 125.37 252.019 128.417 246.377 132.727C246.377 132.727 257.708 114.216 264.135 114.216Z" fill="#F2EAD4"></path><path d="M405.255 173.131C405.255 183.233 397.065 191.422 386.964 191.422C381.913 191.422 378.781 189.693 374.03 186.065C368.39 181.756 362.7 178.709 356.272 178.709C349.844 178.709 344.153 181.756 338.511 186.066C333.76 189.694 330.628 191.423 325.578 191.423C315.477 191.423 307.287 183.234 307.287 173.132C307.287 163.031 315.477 154.841 325.578 154.841C330.629 154.841 333.761 156.57 338.511 160.199C344.152 164.507 349.842 167.555 356.27 167.555C362.698 167.555 368.389 164.507 374.03 160.198C378.782 156.569 381.914 154.84 386.964 154.84C397.065 154.84 405.255 163.03 405.255 173.131Z" fill="#F2EAD4"></path><path d="M356.272 178.708C349.844 178.708 344.153 181.755 338.511 186.065C338.511 186.065 349.842 167.554 356.27 167.554C362.698 167.554 368.389 164.506 374.03 160.197C374.03 160.197 362.7 178.708 356.272 178.708Z" fill="#F2EAD4"></path><path d="M221.342 274.563C221.342 284.402 213.367 292.377 203.528 292.377C193.69 292.377 185.714 284.402 185.714 274.563C185.714 264.725 193.69 256.749 203.528 256.749C213.367 256.749 221.342 264.725 221.342 274.563Z" stroke="#F2EAD4"></path><path d="M97.9677 274.541C97.9677 264.439 89.7783 256.25 79.6768 256.25C74.6255 256.25 71.4937 257.979 66.7434 261.608C61.1028 265.916 55.4127 268.963 48.9849 268.963C42.5571 268.963 36.866 265.916 31.2244 261.606C26.473 257.978 23.3412 256.249 18.291 256.249C8.18942 256.249 0 264.438 0 274.54C0 284.641 8.18942 292.831 18.291 292.831C23.3422 292.831 26.474 291.102 31.2244 287.473C36.865 283.165 42.555 280.117 48.9828 280.117C55.4106 280.117 61.1017 283.165 66.7434 287.474C71.4947 291.103 74.6265 292.832 79.6768 292.832C89.7783 292.832 97.9677 284.642 97.9677 274.541Z" fill="#F2EAD4"></path><path d="M48.985 268.963C42.5573 268.963 36.8662 265.916 31.2245 261.606C31.2245 261.606 42.5552 280.117 48.9829 280.117C55.4107 280.117 61.1018 283.165 66.7435 287.474C66.7435 287.474 55.4128 268.963 48.985 268.963Z" fill="#F2EAD4"></path><path d="M132.224 290.466C130.304 289.357 128.662 287.953 127.32 286.344C126.622 285.519 125.988 284.622 125.429 283.653C124.191 281.509 123.545 279.556 123.297 277.425C122.98 275.384 123.005 273.285 123.399 271.216C123.443 270.98 123.483 270.744 123.511 270.506C123.54 270.268 123.571 270.022 123.603 269.775C124.514 262.736 124.31 256.284 121.097 250.717C117.885 245.15 112.4 241.744 105.849 239.011C100.331 236.71 97.2689 234.862 94.7433 230.487C89.6941 221.738 92.6933 210.553 101.441 205.502C110.191 200.453 121.377 203.452 126.427 212.202C128.951 216.576 129.019 220.153 128.251 226.081C127.34 233.12 127.544 239.572 130.757 245.139C130.844 245.291 130.934 245.441 131.024 245.59C135.795 253.383 147.193 253.266 151.819 245.386C151.843 245.345 151.867 245.303 151.891 245.261C155.106 239.695 155.314 233.242 154.403 226.203C153.637 220.274 153.707 216.697 156.233 212.324C161.286 203.577 172.472 200.581 181.22 205.633C189.968 210.685 192.964 221.872 187.911 230.62C185.386 234.994 182.322 236.842 176.804 239.141C170.252 241.871 164.767 245.274 161.552 250.839C158.337 256.405 158.13 262.858 159.04 269.897C159.04 269.901 159.041 269.905 159.042 269.911C159.081 270.213 159.126 270.514 159.187 270.811C159.601 272.814 159.668 274.85 159.412 276.837C159.231 279.252 158.585 281.397 157.211 283.777C152.159 292.525 140.972 295.521 132.224 290.468L132.224 290.466Z" fill="#F2EAD4"></path><path d="M151.886 245.358C155.101 239.792 155.308 233.339 154.398 226.3C154.398 226.3 164.761 245.37 161.546 250.936C158.331 256.502 158.123 262.955 159.034 269.994C159.034 269.994 148.671 250.923 151.886 245.358Z" fill="#F2EAD4"></path><path d="M123.512 270.504C123.541 270.264 123.572 270.02 123.603 269.773C124.514 262.734 124.31 256.282 121.097 250.715C117.885 245.148 128.252 226.08 128.252 226.08C127.341 233.119 127.545 239.571 130.758 245.138C130.845 245.29 130.935 245.44 131.025 245.589C135.796 253.382 123.482 270.742 123.512 270.504Z" fill="#F2EAD4"></path><path d="M154.011 221.292C154.011 211.191 162.2 203.001 172.302 203.001C177.353 203.001 180.485 204.73 185.235 208.359C190.876 212.667 196.566 215.715 202.994 215.715C209.421 215.715 215.112 212.667 220.754 208.358C225.506 204.729 228.637 203 233.688 203C243.789 203 251.979 211.19 251.979 221.291C251.979 231.393 243.789 239.582 233.688 239.582C228.636 239.582 225.504 237.853 220.754 234.224C215.114 229.916 209.423 226.869 202.996 226.869C196.568 226.869 190.877 229.916 185.235 234.226C180.484 237.854 177.352 239.583 172.302 239.583C162.2 239.583 154.011 231.394 154.011 221.292Z" fill="#F2EAD4"></path><path d="M202.994 215.716C209.421 215.716 215.112 212.668 220.754 208.359C220.754 208.359 209.423 226.87 202.996 226.87C196.568 226.87 190.877 229.917 185.235 234.227C185.235 234.227 196.566 215.716 202.994 215.716Z" fill="#F2EAD4"></path><path d="M365.9 205.457C367.819 206.566 369.462 207.97 370.804 209.579C371.502 210.404 372.136 211.302 372.695 212.27C373.933 214.415 374.579 216.368 374.827 218.499C375.144 220.539 375.119 222.639 374.725 224.708C374.681 224.943 374.641 225.179 374.612 225.417C374.584 225.655 374.552 225.901 374.521 226.148C373.61 233.188 373.814 239.64 377.027 245.206C380.239 250.773 385.724 254.179 392.275 256.912C397.793 259.213 400.855 261.061 403.381 265.436C408.43 274.185 405.431 285.371 396.682 290.421C387.933 295.47 376.747 292.471 371.697 283.722C369.173 279.347 369.104 275.77 369.873 269.842C370.784 262.803 370.58 256.351 367.367 250.784C367.28 250.632 367.19 250.482 367.1 250.334C362.329 242.54 350.931 242.658 346.305 250.538C346.281 250.579 346.257 250.62 346.233 250.662C343.018 256.228 342.81 262.681 343.721 269.72C344.487 275.649 344.417 279.226 341.891 283.599C336.838 292.347 325.652 295.343 316.904 290.29C308.156 285.238 305.16 274.052 310.213 265.303C312.738 260.93 315.802 259.082 321.32 256.782C327.872 254.053 333.357 250.649 336.572 245.084C339.787 239.519 339.994 233.066 339.084 226.026C339.084 226.022 339.083 226.018 339.082 226.013C339.043 225.711 338.998 225.41 338.937 225.112C338.523 223.109 338.456 221.073 338.711 219.086C338.892 216.671 339.539 214.526 340.913 212.146C345.965 203.399 357.152 200.403 365.9 205.455V205.457Z" fill="#F2EAD4"></path><path d="M346.238 250.565C343.023 256.131 342.815 262.584 343.726 269.623C343.726 269.623 333.363 250.553 336.578 244.988C339.793 239.422 340 232.969 339.09 225.929C339.09 225.929 349.453 245 346.238 250.565Z" fill="#F2EAD4"></path><path d="M344.113 274.631C344.113 284.733 335.924 292.922 325.822 292.922C320.771 292.922 317.639 291.193 312.889 287.565C307.248 283.256 301.558 280.209 295.13 280.209C288.703 280.209 283.011 283.256 277.37 287.566C272.618 291.194 269.487 292.923 264.436 292.923C254.335 292.923 246.145 284.734 246.145 274.632C246.145 264.531 254.335 256.341 264.436 256.341C269.488 256.341 272.619 258.07 277.37 261.699C283.01 266.007 288.7 269.055 295.128 269.055C301.556 269.055 307.247 266.007 312.889 261.698C317.64 258.069 320.772 256.34 325.822 256.34C335.924 256.34 344.113 264.53 344.113 274.631Z" fill="#F2EAD4"></path><path d="M295.13 280.208C288.703 280.208 283.011 283.255 277.37 287.565C277.37 287.565 288.7 269.054 295.128 269.054C301.556 269.054 307.247 266.006 312.889 261.697C312.889 261.697 301.558 280.208 295.13 280.208Z" fill="#F2EAD4"></path><path d="M313.528 424.31C313.528 434.148 305.553 442.124 295.714 442.124C285.876 442.124 277.9 434.148 277.9 424.31C277.9 414.471 285.876 406.496 295.714 406.496C305.553 406.496 313.528 414.471 313.528 424.31Z" stroke="#F2EAD4"></path><path d="M66.7516 424.31C66.7516 434.148 58.776 442.124 48.9375 442.124C39.0991 442.124 31.1234 434.148 31.1234 424.31C31.1234 414.471 39.0991 406.496 48.9375 406.496C58.776 406.496 66.7516 414.471 66.7516 424.31Z" stroke="#F2EAD4"></path><path d="M97.9677 477.537C97.9677 467.435 89.7783 459.246 79.6768 459.246C74.6255 459.246 71.4937 460.975 66.7434 464.603C61.1028 468.912 55.4127 471.959 48.9849 471.959C42.5571 471.959 36.866 468.911 31.2244 464.602C26.473 460.974 23.3412 459.245 18.291 459.245C8.18942 459.245 0 467.434 0 477.536C0 487.637 8.18942 495.826 18.291 495.826C23.3422 495.826 26.474 494.097 31.2244 490.469C36.865 486.161 42.555 483.113 48.9828 483.113C55.4106 483.113 61.1017 486.161 66.7434 490.47C71.4947 494.099 74.6265 495.828 79.6768 495.828C89.7783 495.828 97.9677 487.638 97.9677 477.537Z" fill="#F2EAD4"></path><path d="M48.985 471.959C42.5573 471.959 36.8662 468.911 31.2245 464.602C31.2245 464.602 42.5552 483.113 48.9829 483.113C55.4107 483.113 61.1018 486.161 66.7435 490.47C66.7435 490.47 55.4128 471.959 48.985 471.959Z" fill="#F2EAD4"></path><path d="M132.224 493.462C130.304 492.353 128.662 490.949 127.32 489.34C126.622 488.515 125.988 487.617 125.429 486.649C124.191 484.504 123.545 482.551 123.297 480.42C122.98 478.38 123.005 476.28 123.399 474.211C123.443 473.976 123.483 473.74 123.511 473.502C123.54 473.264 123.571 473.018 123.603 472.771C124.514 465.731 124.31 459.279 121.097 453.712C117.885 448.146 112.4 444.74 105.849 442.007C100.331 439.706 97.2689 437.858 94.7433 433.483C89.6941 424.734 92.6933 413.548 101.441 408.498C110.191 403.449 121.377 406.448 126.427 415.197C128.951 419.572 129.019 423.149 128.251 429.077C127.34 436.116 127.544 442.568 130.757 448.135C130.844 448.287 130.934 448.437 131.024 448.585C135.795 456.379 147.193 456.261 151.819 448.381C151.843 448.34 151.867 448.299 151.891 448.257C155.106 442.691 155.314 436.238 154.403 429.199C153.637 423.27 153.707 419.693 156.233 415.319C161.286 406.572 172.472 403.576 181.22 408.629C189.968 413.681 192.964 424.867 187.911 433.616C185.386 437.989 182.322 439.837 176.804 442.137C170.252 444.866 164.767 448.27 161.552 453.834C158.337 459.4 158.13 465.853 159.04 472.893C159.04 472.897 159.041 472.901 159.042 472.906C159.081 473.208 159.126 473.509 159.187 473.807C159.601 475.81 159.668 477.846 159.412 479.833C159.231 482.248 158.585 484.393 157.211 486.773C152.159 495.52 140.972 498.516 132.224 493.464L132.224 493.462Z" fill="#F2EAD4"></path><path d="M151.886 448.354C155.101 442.788 155.308 436.335 154.398 429.296C154.398 429.296 164.761 448.366 161.546 453.931C158.331 459.497 158.123 465.95 159.034 472.99C159.034 472.99 148.671 453.919 151.886 448.354Z" fill="#F2EAD4"></path><path d="M123.512 473.5C123.541 473.26 123.572 473.016 123.603 472.768C124.514 465.729 124.31 459.277 121.097 453.71C117.885 448.143 128.252 429.076 128.252 429.076C127.341 436.115 127.545 442.567 130.758 448.134C130.845 448.285 130.935 448.436 131.025 448.584C135.796 456.378 123.482 473.738 123.512 473.5Z" fill="#F2EAD4"></path><path d="M154.011 424.288C154.011 414.186 162.2 405.997 172.302 405.997C177.353 405.997 180.485 407.726 185.235 411.354C190.876 415.663 196.566 418.71 202.994 418.71C209.421 418.71 215.112 415.663 220.754 411.353C225.506 407.725 228.637 405.996 233.688 405.996C243.789 405.996 251.979 414.185 251.979 424.287C251.979 434.388 243.789 442.578 233.688 442.578C228.636 442.578 225.504 440.849 220.754 437.22C215.114 432.912 209.423 429.864 202.996 429.864C196.568 429.864 190.877 432.912 185.235 437.221C180.484 440.85 177.352 442.579 172.302 442.579C162.2 442.579 154.011 434.389 154.011 424.288Z" fill="#F2EAD4"></path><path d="M202.994 418.711C209.421 418.711 215.112 415.664 220.754 411.354C220.754 411.354 209.423 429.865 202.996 429.865C196.568 429.865 190.877 432.913 185.235 437.222C185.235 437.222 196.566 418.711 202.994 418.711Z" fill="#F2EAD4"></path><path d="M365.9 408.453C367.819 409.562 369.462 410.966 370.804 412.575C371.502 413.4 372.136 414.297 372.695 415.266C373.933 417.41 374.579 419.363 374.827 421.494C375.144 423.535 375.119 425.634 374.725 427.703C374.681 427.939 374.641 428.175 374.612 428.413C374.584 428.65 374.552 428.897 374.521 429.144C373.61 436.183 373.814 442.635 377.027 448.202C380.239 453.769 385.724 457.174 392.275 459.907C397.793 462.209 400.855 464.057 403.381 468.431C408.43 477.181 405.431 488.366 396.682 493.416C387.933 498.466 376.747 495.466 371.697 486.717C369.173 482.343 369.104 478.766 369.873 472.838C370.784 465.799 370.58 459.346 367.367 453.78C367.28 453.628 367.19 453.478 367.1 453.329C362.329 445.535 350.931 445.653 346.305 453.533C346.281 453.574 346.257 453.615 346.233 453.658C343.018 459.223 342.81 465.676 343.721 472.716C344.487 478.645 344.417 482.221 341.891 486.595C336.838 495.342 325.652 498.338 316.904 493.286C308.156 488.234 305.16 477.047 310.213 468.299C312.738 463.925 315.802 462.077 321.32 459.778C327.872 457.048 333.357 453.645 336.572 448.08C339.787 442.514 339.994 436.061 339.084 429.022C339.084 429.018 339.083 429.014 339.082 429.008C339.043 428.706 338.998 428.405 338.937 428.107C338.523 426.105 338.456 424.068 338.711 422.082C338.892 419.666 339.539 417.522 340.913 415.141C345.965 406.394 357.152 403.398 365.9 408.451V408.453Z" fill="#F2EAD4"></path><path d="M346.238 453.561C343.023 459.126 342.815 465.58 343.726 472.619C343.726 472.619 333.363 453.549 336.578 447.983C339.793 442.417 340 435.964 339.09 428.925C339.09 428.925 349.453 447.996 346.238 453.561Z" fill="#F2EAD4"></path><path d="M344.113 477.627C344.113 487.728 335.924 495.918 325.822 495.918C320.771 495.918 317.639 494.189 312.889 490.56C307.248 486.252 301.558 483.204 295.13 483.204C288.703 483.204 283.011 486.252 277.37 490.561C272.618 494.19 269.487 495.919 264.436 495.919C254.335 495.919 246.145 487.729 246.145 477.628C246.145 467.526 254.335 459.337 264.436 459.337C269.488 459.337 272.619 461.066 277.37 464.695C283.01 469.003 288.7 472.05 295.128 472.05C301.556 472.05 307.247 469.003 312.889 464.693C317.64 461.065 320.772 459.336 325.822 459.336C335.924 459.336 344.113 467.525 344.113 477.627Z" fill="#F2EAD4"></path><path d="M295.13 483.203C288.703 483.203 283.011 486.251 277.37 490.56C277.37 490.56 288.7 472.049 295.128 472.049C301.556 472.049 307.247 469.002 312.889 464.692C312.889 464.692 301.558 483.203 295.13 483.203Z" fill="#F2EAD4"></path><path d="M374.67 322.864C374.67 332.703 366.695 340.678 356.856 340.678C347.018 340.678 339.042 332.703 339.042 322.864C339.042 313.026 347.018 305.05 356.856 305.05C366.695 305.05 374.67 313.026 374.67 322.864Z" stroke="#F2EAD4"></path><path d="M159.109 376.091C159.109 365.99 150.92 357.8 140.818 357.8C135.767 357.8 132.635 359.529 127.885 363.158C122.244 367.466 116.554 370.514 110.127 370.514C103.699 370.514 98.0077 367.466 92.3661 363.157C87.6147 359.528 84.4829 357.799 79.4327 357.799C69.3311 357.799 61.1417 365.989 61.1417 376.09C61.1417 386.192 69.3311 394.381 79.4327 394.381C84.484 394.381 87.6158 392.652 92.3661 389.024C98.0067 384.715 103.697 381.668 110.125 381.668C116.552 381.668 122.243 384.715 127.885 389.025C132.636 392.653 135.768 394.382 140.818 394.382C150.92 394.382 159.109 386.193 159.109 376.091Z" fill="#F2EAD4"></path><path d="M110.127 370.514C103.699 370.514 98.0079 367.466 92.3662 363.157C92.3662 363.157 103.697 381.668 110.125 381.668C116.552 381.668 122.244 384.715 127.885 389.025C127.885 389.025 116.555 370.514 110.127 370.514Z" fill="#F2EAD4"></path><path d="M193.366 392.017C191.446 390.907 189.803 389.504 188.462 387.895C187.764 387.069 187.129 386.172 186.571 385.204C185.333 383.059 184.687 381.106 184.439 378.975C184.122 376.934 184.147 374.835 184.541 372.766C184.585 372.53 184.625 372.294 184.653 372.057C184.682 371.819 184.713 371.573 184.745 371.325C185.656 364.286 185.452 357.834 182.239 352.267C179.026 346.7 173.541 343.295 166.991 340.562C161.473 338.26 158.411 336.412 155.885 332.038C150.836 323.288 153.835 312.103 162.583 307.053C171.332 302.004 182.519 305.003 187.568 313.752C190.093 318.127 190.161 321.704 189.393 327.632C188.482 334.671 188.686 341.123 191.899 346.69C191.986 346.841 192.075 346.992 192.166 347.14C196.936 354.934 208.334 354.816 212.96 346.936C212.985 346.895 213.009 346.854 213.033 346.812C216.248 341.246 216.455 334.793 215.545 327.754C214.779 321.825 214.848 318.248 217.375 313.874C222.427 305.127 233.614 302.131 242.362 307.183C251.109 312.236 254.105 323.422 249.053 332.17C246.527 336.544 243.464 338.392 237.945 340.691C231.393 343.421 225.909 346.824 222.694 352.389C219.479 357.955 219.271 364.408 220.182 371.447C220.182 371.452 220.183 371.456 220.184 371.461C220.223 371.763 220.268 372.064 220.329 372.362C220.743 374.364 220.81 376.401 220.554 378.388C220.373 380.803 219.727 382.947 218.353 385.328C213.3 394.075 202.114 397.071 193.366 392.019L193.366 392.017Z" fill="#F2EAD4"></path><path d="M213.028 346.909C216.243 341.343 216.45 334.89 215.54 327.85C215.54 327.85 225.902 346.92 222.687 352.486C219.472 358.052 219.265 364.505 220.175 371.544C220.175 371.544 209.813 352.473 213.028 346.909Z" fill="#F2EAD4"></path><path d="M184.653 372.054C184.683 371.815 184.713 371.57 184.745 371.323C185.656 364.284 185.452 357.832 182.239 352.265C179.026 346.698 189.394 327.63 189.394 327.63C188.483 334.67 188.687 341.122 191.9 346.689C191.987 346.84 192.077 346.991 192.167 347.139C196.937 354.933 184.624 372.292 184.653 372.054Z" fill="#F2EAD4"></path><path d="M215.152 322.842C215.152 312.741 223.342 304.551 233.443 304.551C238.495 304.551 241.627 306.28 246.377 309.909C252.017 314.217 257.708 317.265 264.135 317.265C270.563 317.265 276.254 314.217 281.896 309.908C286.647 306.279 289.779 304.55 294.829 304.55C304.931 304.55 313.12 312.74 313.12 322.841C313.12 332.943 304.931 341.132 294.829 341.132C289.778 341.132 286.646 339.403 281.896 335.775C276.255 331.466 270.565 328.419 264.137 328.419C257.71 328.419 252.019 331.466 246.377 335.776C241.625 339.404 238.494 341.133 233.443 341.133C223.342 341.133 215.152 332.944 215.152 322.842Z" fill="#F2EAD4"></path><path d="M264.135 317.266C270.563 317.266 276.254 314.218 281.896 309.909C281.896 309.909 270.565 328.42 264.137 328.42C257.71 328.42 252.019 331.467 246.377 335.777C246.377 335.777 257.708 317.266 264.135 317.266Z" fill="#F2EAD4"></path><path d="M405.255 376.182C405.255 386.283 397.065 394.472 386.964 394.472C381.913 394.472 378.781 392.744 374.03 389.115C368.39 384.807 362.7 381.759 356.272 381.759C349.844 381.759 344.153 384.807 338.511 389.116C333.76 392.745 330.628 394.474 325.578 394.474C315.477 394.474 307.287 386.284 307.287 376.183C307.287 366.081 315.477 357.892 325.578 357.892C330.629 357.892 333.761 359.621 338.511 363.249C344.152 367.558 349.842 370.605 356.27 370.605C362.698 370.605 368.389 367.557 374.03 363.248C378.782 359.62 381.914 357.891 386.964 357.891C397.065 357.891 405.255 366.08 405.255 376.182Z" fill="#F2EAD4"></path><path d="M356.272 381.758C349.844 381.758 344.153 384.806 338.511 389.115C338.511 389.115 349.842 370.604 356.27 370.604C362.698 370.604 368.389 367.556 374.03 363.247C374.03 363.247 362.7 381.758 356.272 381.758Z" fill="#F2EAD4"></path></g></svg> 